<svg width="72" height="72" viewBox="0 0 72 72" fill="none" xmlns="http://www.w3.org/2000/svg">
<path d="M29.1148 35.6589C29.1148 32.0399 32.0495 29.1054 35.6706 29.1054C39.2918 29.1054 42.2281 32.0399 42.2281 35.6589C42.2281 39.2778 39.2918 42.2123 35.6706 42.2123C32.0495 42.2123 29.1148 39.2778 29.1148 35.6589ZM25.57 35.6589C25.57 41.2341 30.0921 45.7534 35.6706 45.7534C41.2492 45.7534 45.7713 41.2341 45.7713 35.6589C45.7713 30.0836 41.2492 25.5643 35.6706 25.5643C30.0921 25.5643 25.57 30.0836 25.57 35.6589ZM43.8107 25.164C43.8105 25.6306 43.9487 26.0867 44.208 26.4748C44.4672 26.8628 44.8357 27.1654 45.267 27.3441C45.6982 27.5228 46.1728 27.5697 46.6307 27.4789C47.0887 27.388 47.5093 27.1635 47.8396 26.8337C48.1698 26.5039 48.3948 26.0837 48.4861 25.6261C48.5774 25.1685 48.5308 24.6942 48.3523 24.2631C48.1738 23.8319 47.8714 23.4634 47.4834 23.204C47.0953 22.9446 46.639 22.8061 46.1721 22.8059H46.1712C45.5454 22.8062 44.9453 23.0547 44.5027 23.4968C44.0601 23.939 43.8112 24.5386 43.8107 25.164V25.164ZM27.7237 51.6607C25.8059 51.5734 24.7635 51.2541 24.0708 50.9844C23.1524 50.6271 22.4971 50.2015 21.8082 49.5139C21.1192 48.8263 20.6928 48.1721 20.3368 47.2543C20.0668 46.5623 19.7473 45.5202 19.6602 43.6035C19.5648 41.5313 19.5458 40.9089 19.5458 35.659C19.5458 30.4092 19.5664 29.7884 19.6602 27.7145C19.7475 25.7978 20.0693 24.7578 20.3368 24.0637C20.6944 23.1459 21.1202 22.491 21.8082 21.8025C22.4962 21.114 23.1508 20.6878 24.0708 20.332C24.7632 20.0621 25.8059 19.7429 27.7237 19.6558C29.7971 19.5605 30.42 19.5414 35.6706 19.5414C40.9213 19.5414 41.5448 19.562 43.62 19.6558C45.5378 19.743 46.5784 20.0647 47.2729 20.332C48.1913 20.6878 48.8465 21.1149 49.5355 21.8025C50.2244 22.4901 50.6493 23.1459 51.0068 24.0637C51.2769 24.7557 51.5963 25.7978 51.6835 27.7145C51.7789 29.7884 51.7979 30.4092 51.7979 35.659C51.7979 40.9089 51.7789 41.5296 51.6835 43.6035C51.5962 45.5202 51.2751 46.562 51.0068 47.2543C50.6493 48.1721 50.2235 48.827 49.5355 49.5139C48.8475 50.2009 48.1913 50.6271 47.2729 50.9844C46.5805 51.2543 45.5378 51.5736 43.62 51.6607C41.5465 51.756 40.9237 51.775 35.6706 51.775C30.4176 51.775 29.7965 51.756 27.7237 51.6607V51.6607ZM27.5608 16.1191C25.4668 16.2144 24.0359 16.5462 22.7862 17.0322C21.492 17.534 20.3965 18.2073 19.3017 19.2997C18.2069 20.3921 17.5349 21.4888 17.0328 22.7821C16.5465 24.0318 16.2145 25.4611 16.1191 27.5539C16.0222 29.65 16 30.3201 16 35.6589C16 40.9976 16.0222 41.6677 16.1191 43.7638C16.2145 45.8568 16.5465 47.2859 17.0328 48.5356C17.5349 49.8282 18.207 50.9261 19.3017 52.018C20.3963 53.1099 21.492 53.7823 22.7862 54.2855C24.0382 54.7715 25.4668 55.1033 27.5608 55.1986C29.6593 55.294 30.3287 55.3177 35.6706 55.3177C41.0126 55.3177 41.6831 55.2955 43.7805 55.1986C45.8747 55.1033 47.3047 54.7715 48.5551 54.2855C49.8485 53.7823 50.9448 53.1104 52.0396 52.018C53.1344 50.9256 53.8049 49.8282 54.3085 48.5356C54.7948 47.2859 55.1284 45.8566 55.2222 43.7638C55.3175 41.6661 55.3397 40.9976 55.3397 35.6589C55.3397 30.3201 55.3175 29.65 55.2222 27.5539C55.1268 25.4609 54.7948 24.031 54.3085 22.7821C53.8049 21.4895 53.1327 20.3938 52.0396 19.2997C50.9466 18.2056 49.8485 17.534 48.5567 17.0322C47.3047 16.5462 45.8745 16.2128 43.782 16.1191C41.6847 16.0237 41.0141 16 35.6722 16C30.3303 16 29.6593 16.0222 27.5608 16.1191Z" fill="url(#paint0_radial_214_72)"/>
<path d="M29.1148 35.6589C29.1148 32.0399 32.0495 29.1054 35.6706 29.1054C39.2918 29.1054 42.2281 32.0399 42.2281 35.6589C42.2281 39.2778 39.2918 42.2123 35.6706 42.2123C32.0495 42.2123 29.1148 39.2778 29.1148 35.6589ZM25.57 35.6589C25.57 41.2341 30.0921 45.7534 35.6706 45.7534C41.2492 45.7534 45.7713 41.2341 45.7713 35.6589C45.7713 30.0836 41.2492 25.5643 35.6706 25.5643C30.0921 25.5643 25.57 30.0836 25.57 35.6589ZM43.8107 25.164C43.8105 25.6306 43.9487 26.0867 44.208 26.4748C44.4672 26.8628 44.8357 27.1654 45.267 27.3441C45.6982 27.5228 46.1728 27.5697 46.6307 27.4789C47.0887 27.388 47.5093 27.1635 47.8396 26.8337C48.1698 26.5039 48.3948 26.0837 48.4861 25.6261C48.5774 25.1685 48.5308 24.6942 48.3523 24.2631C48.1738 23.8319 47.8714 23.4634 47.4834 23.204C47.0953 22.9446 46.639 22.8061 46.1721 22.8059H46.1712C45.5454 22.8062 44.9453 23.0547 44.5027 23.4968C44.0601 23.939 43.8112 24.5386 43.8107 25.164V25.164ZM27.7237 51.6607C25.8059 51.5734 24.7635 51.2541 24.0708 50.9844C23.1524 50.6271 22.4971 50.2015 21.8082 49.5139C21.1192 48.8263 20.6928 48.1721 20.3368 47.2543C20.0668 46.5623 19.7473 45.5202 19.6602 43.6035C19.5648 41.5313 19.5458 40.9089 19.5458 35.659C19.5458 30.4092 19.5664 29.7884 19.6602 27.7145C19.7475 25.7978 20.0693 24.7578 20.3368 24.0637C20.6944 23.1459 21.1202 22.491 21.8082 21.8025C22.4962 21.114 23.1508 20.6878 24.0708 20.332C24.7632 20.0621 25.8059 19.7429 27.7237 19.6558C29.7971 19.5605 30.42 19.5414 35.6706 19.5414C40.9213 19.5414 41.5448 19.562 43.62 19.6558C45.5378 19.743 46.5784 20.0647 47.2729 20.332C48.1913 20.6878 48.8465 21.1149 49.5355 21.8025C50.2244 22.4901 50.6493 23.1459 51.0068 24.0637C51.2769 24.7557 51.5963 25.7978 51.6835 27.7145C51.7789 29.7884 51.7979 30.4092 51.7979 35.659C51.7979 40.9089 51.7789 41.5296 51.6835 43.6035C51.5962 45.5202 51.2751 46.562 51.0068 47.2543C50.6493 48.1721 50.2235 48.827 49.5355 49.5139C48.8475 50.2009 48.1913 50.6271 47.2729 50.9844C46.5805 51.2543 45.5378 51.5736 43.62 51.6607C41.5465 51.756 40.9237 51.775 35.6706 51.775C30.4176 51.775 29.7965 51.756 27.7237 51.6607V51.6607ZM27.5608 16.1191C25.4668 16.2144 24.0359 16.5462 22.7862 17.0322C21.492 17.534 20.3965 18.2073 19.3017 19.2997C18.2069 20.3921 17.5349 21.4888 17.0328 22.7821C16.5465 24.0318 16.2145 25.4611 16.1191 27.5539C16.0222 29.65 16 30.3201 16 35.6589C16 40.9976 16.0222 41.6677 16.1191 43.7638C16.2145 45.8568 16.5465 47.2859 17.0328 48.5356C17.5349 49.8282 18.207 50.9261 19.3017 52.018C20.3963 53.1099 21.492 53.7823 22.7862 54.2855C24.0382 54.7715 25.4668 55.1033 27.5608 55.1986C29.6593 55.294 30.3287 55.3177 35.6706 55.3177C41.0126 55.3177 41.6831 55.2955 43.7805 55.1986C45.8747 55.1033 47.3047 54.7715 48.5551 54.2855C49.8485 53.7823 50.9448 53.1104 52.0396 52.018C53.1344 50.9256 53.8049 49.8282 54.3085 48.5356C54.7948 47.2859 55.1284 45.8566 55.2222 43.7638C55.3175 41.6661 55.3397 40.9976 55.3397 35.6589C55.3397 30.3201 55.3175 29.65 55.2222 27.5539C55.1268 25.4609 54.7948 24.031 54.3085 22.7821C53.8049 21.4895 53.1327 20.3938 52.0396 19.2997C50.9466 18.2056 49.8485 17.534 48.5567 17.0322C47.3047 16.5462 45.8745 16.2128 43.782 16.1191C41.6847 16.0237 41.0141 16 35.6722 16C30.3303 16 29.6593 16.0222 27.5608 16.1191Z" fill="url(#paint1_radial_214_72)"/>
<defs>
<radialGradient id="paint0_radial_214_72" cx="0" cy="0" r="1" gradientUnits="userSpaceOnUse" gradientTransform="translate(21.2267 55.5034) scale(51.3568 51.326)">
<stop offset="0.09" stop-color="#FA8F21"/>
<stop offset="0.78" stop-color="#D82D7E"/>
</radialGradient>
<radialGradient id="paint1_radial_214_72" cx="0" cy="0" r="1" gradientUnits="userSpaceOnUse" gradientTransform="translate(39.8588 57.2649) scale(40.4762 40.4519)">
<stop offset="0.64" stop-color="#8C3AAA" stop-opacity="0"/>
<stop offset="1" stop-color="#8C3AAA"/>
</radialGradient>
</defs>
</svg>
