<svg width="72" height="72" viewBox="0 0 72 72" fill="none" xmlns="http://www.w3.org/2000/svg">
<path d="M17 19.779C17 18.2451 18.2842 17 19.8672 17H52.9277C54.5113 17 55.7949 18.2451 55.7949 19.779V53.0164C55.7949 54.5507 54.5113 55.7949 52.9277 55.7949H19.8672C18.2843 55.7949 17 54.5509 17 53.0168V19.7785V19.779Z" fill="#006699"/>
<path d="M28.7891 49.4665V32.0009H22.9838V49.4665H28.7897H28.7891ZM25.8876 29.6167C27.9116 29.6167 29.1717 28.2756 29.1717 26.5995C29.1338 24.8853 27.9116 23.5815 25.9261 23.5815C23.9393 23.5815 22.6416 24.8853 22.6416 26.5994C22.6416 28.2754 23.9012 29.6166 25.8496 29.6166H25.8872L25.8876 29.6167ZM32.0024 49.4665H37.8072V39.714C37.8072 39.1927 37.8451 38.67 37.9985 38.2977C38.4179 37.2543 39.3731 36.1743 40.9772 36.1743C43.0773 36.1743 43.9179 37.7758 43.9179 40.1239V49.4665H49.7226V39.4523C49.7226 34.0878 46.859 31.5915 43.0397 31.5915C39.9084 31.5915 38.5331 33.3416 37.769 34.5337H37.8077V32.0015H32.0027C32.0785 33.64 32.0022 49.4671 32.0022 49.4671L32.0024 49.4665Z" fill="white"/>
</svg>
